<svg xmlns="http://www.w3.org/2000/svg" width="20.777" height="22.02" viewBox="0 0 20.777 22.02"><defs><style>.a{fill:#999;}</style></defs><path class="a" d="M18.889,19.613V10.347a10.709,10.709,0,0,1,5.105-1.466h0c.25-.006.5,0,.748.01a11.458,11.458,0,0,1,3.856.9,14.753,14.753,0,0,0,6.354,1.348,5.508,5.508,0,0,0,.935-.157v9.512a4.927,4.927,0,0,1-1.043.157,12.3,12.3,0,0,1-5.508-1.22,16.531,16.531,0,0,0-8.448-.719,7.732,7.732,0,0,0,.027,1.123,7.194,7.194,0,0,1-.01.756,14.683,14.683,0,0,1,7.684.57,14.149,14.149,0,0,0,6.355,1.367,6.188,6.188,0,0,0,2.351-.551l.436-.21.046-11.978a3.116,3.116,0,0,0-.054-.809,1.093,1.093,0,0,0-.067-.3,7.309,7.309,0,0,0-1.276.273,3.509,3.509,0,0,1-1.524.3,12.819,12.819,0,0,1-5.528-1.2,13.262,13.262,0,0,0-4.5-1.023c-.318-.015-.637-.019-.954-.01h0A12.608,12.608,0,0,0,17.443,9,.962.962,0,0,0,17,9.8V28.982l.868.046c.34-.018.68-.029,1.02-.04V21.7" transform="translate(-17 -7.008)"/></svg>