<svg xmlns="http://www.w3.org/2000/svg" width="23.618" height="31" viewBox="0 0 23.618 31"><defs><style>.a{fill:#999;}</style></defs><path class="a" d="M16.98,8.439a4.428,4.428,0,1,0-6.273,4.015V26.567a4.426,4.426,0,1,0,3.69,0V12.454A4.421,4.421,0,0,0,16.98,8.439ZM15.105,30.58a2.555,2.555,0,1,1-2.554-2.556A2.556,2.556,0,0,1,15.105,30.58ZM12.552,10.994a2.556,2.556,0,1,1,2.555-2.556,2.555,2.555,0,0,1-2.555,2.556ZM29.158,26.565V12.454a4.428,4.428,0,1,0-3.69,0V26.567a4.426,4.426,0,1,0,3.69,0Zm-4.4-18.127a2.555,2.555,0,1,1,2.556,2.556A2.553,2.553,0,0,1,24.759,8.439Zm2.554,24.7a2.556,2.556,0,1,1,2.554-2.556,2.555,2.555,0,0,1-2.554,2.556Z" transform="translate(-8.123 -4.01)"/></svg>