<svg xmlns="http://www.w3.org/2000/svg" width="32.309" height="30.168" viewBox="0 0 32.309 30.168"><defs><style>.a{fill:#999;}</style></defs><g transform="translate(-2.322 -5.831)"><g transform="translate(2.322 5.831)"><g transform="translate(0 0)"><path class="a" d="M18.508,24.608l-.517-.264L3.75,16.253l-1.428-.909,1.411-.857L18.045,5.974a1.022,1.022,0,0,1,1.041,0l14.241,8.389,1.3.869-1.314.9L19,24.341ZM6.287,15.344l12.207,6.935L30.776,15.23,18.569,8.04Z" transform="translate(-2.322 -5.831)"/></g><g transform="translate(1.428 14.221)"><path class="a" d="M21.319,57.914l-.555-.266L6.522,49.557l1.009-1.777,13.735,7.8L35.071,47.66l1.017,1.772L21.777,57.646Z" transform="translate(-6.522 -47.66)"/></g><g transform="translate(1.428 19.911)"><path class="a" d="M21.266,74.655,6.522,66.3l1.009-1.777,13.735,7.8L35.071,64.4l1.017,1.772Z" transform="translate(-6.522 -64.398)"/></g></g></g></svg>