<svg xmlns="http://www.w3.org/2000/svg" width="57.277" height="26" viewBox="0 0 57.277 26"><defs><style>.a,.b{fill:none;}.b{stroke:#999;stroke-width:2px;}.c{fill:#999;}</style></defs><g transform="translate(-3.371 -7.318)"><circle class="a" cx="7" cy="7" r="7" transform="translate(25.535 7.318)"/><circle class="b" cx="6" cy="6" r="6" transform="translate(26.535 8.318)"/><path class="a" d="M41.617,28.889a4.709,4.709,0,0,1,2.389,4.429h1.529v-1a9.011,9.011,0,0,0-9-9h-9a9.01,9.01,0,0,0-9,9v1h1.372a5.076,5.076,0,0,1,.55-1.442"/><path class="c" d="M20.606,31.318a7.012,7.012,0,0,1,6.929-6h9a7.008,7.008,0,0,1,6.738,5.125,15.807,15.807,0,0,1,.566,2.875h1.7v-1a9.011,9.011,0,0,0-9-9h-9a9.011,9.011,0,0,0-9,9v1h1.971"/><circle class="a" cx="6.394" cy="6.394" r="6.394" transform="translate(8.869 10.673)"/><circle class="b" cx="5.48" cy="5.48" r="5.48" transform="translate(9.783 11.587)"/><path class="c" d="M3.371,33.207a8.307,8.307,0,0,1,8.238-7.92l6.934-.009a9.253,9.253,0,0,1,1.565.106A8.545,8.545,0,0,0,19.1,27.108a5.714,5.714,0,0,0-1.113-.027l-6.378.033A6.4,6.4,0,0,0,5.455,31.8a6.765,6.765,0,0,0-.374,1.491"/><circle class="a" cx="6.394" cy="6.394" r="6.394" transform="translate(42.362 10.673)"/><circle class="b" cx="5.48" cy="5.48" r="5.48" transform="translate(43.276 11.587)"/><path class="c" d="M60.648,33.207a8.307,8.307,0,0,0-8.238-7.92l-6.934-.009a9.246,9.246,0,0,0-1.565.106,8.545,8.545,0,0,1,1.008,1.724,5.712,5.712,0,0,1,1.113-.027l6.378.033A6.4,6.4,0,0,1,58.564,31.8a6.765,6.765,0,0,1,.374,1.491"/></g></svg>