<svg xmlns="http://www.w3.org/2000/svg" width="19.927" height="18.857" viewBox="0 0 19.927 18.857"><defs><style>.a{fill:#999;}</style></defs><g transform="translate(-41.2 -42.533)"><path class="a" d="M61.127,258.047v4.411a1,1,0,0,1-.031.245l.031.759H41.2v-5.421h1.882v3.532H59.251v-3.532h1.091Z" transform="translate(0 -202.073)"/><path class="a" d="M120.357,50.97l-5.313,5.212c-.006.013-.019.019-.025.025-.169.169-.743.719-.743.719-.019,0-.637-.55-.807-.719l-.025-.025-4.624-4.624a5.511,5.511,0,0,1-.691-.8c.017-.046.478-.543.691-.756a7.587,7.587,0,0,1,.749-.673l3.586,3.453V42.6a10.212,10.212,0,0,1,2.2,0V52.781l3.422-3.268.846.62Z" transform="translate(-63.077)"/></g></svg>